<?xml version="1.0" encoding="UTF-8" standalone="no"?>
<!-- Created with Inkscape (http://www.inkscape.org/) -->

<svg
   xmlns:dc="http://purl.org/dc/elements/1.1/"
   xmlns:cc="http://creativecommons.org/ns#"
   xmlns:rdf="http://www.w3.org/1999/02/22-rdf-syntax-ns#"
   xmlns:svg="http://www.w3.org/2000/svg"
   xmlns="http://www.w3.org/2000/svg"
   xmlns:sodipodi="http://sodipodi.sourceforge.net/DTD/sodipodi-0.dtd"
   xmlns:inkscape="http://www.inkscape.org/namespaces/inkscape"
   width="86.957275mm"
   height="70.870522mm"
   viewBox="0 0 86.957275 70.870522"
   version="1.1"
   id="svg15808"
   inkscape:version="0.92.4 (unknown)"
   sodipodi:docname="s_curve.svg">
  <defs
     id="defs15802" />
  <sodipodi:namedview
     id="base"
     pagecolor="#ffffff"
     bordercolor="#666666"
     borderopacity="1.0"
     inkscape:pageopacity="0.0"
     inkscape:pageshadow="2"
     inkscape:zoom="0.7"
     inkscape:cx="315.50576"
     inkscape:cy="-151.02385"
     inkscape:document-units="mm"
     inkscape:current-layer="layer1"
     showgrid="false"
     inkscape:snap-bbox="true"
     inkscape:bbox-paths="true"
     inkscape:bbox-nodes="true"
     inkscape:snap-bbox-edge-midpoints="true"
     inkscape:snap-bbox-midpoints="true"
     inkscape:snap-global="true"
     inkscape:snap-intersection-paths="true"
     inkscape:snap-midpoints="true"
     inkscape:snap-object-midpoints="true"
     inkscape:window-width="1853"
     inkscape:window-height="1016"
     inkscape:window-x="1507"
     inkscape:window-y="27"
     inkscape:window-maximized="1" />
  <metadata
     id="metadata15805">
    <rdf:RDF>
      <cc:Work
         rdf:about="">
        <dc:format>image/svg+xml</dc:format>
        <dc:type
           rdf:resource="http://purl.org/dc/dcmitype/StillImage" />
        <dc:title></dc:title>
      </cc:Work>
    </rdf:RDF>
  </metadata>
  <g
     inkscape:label="Layer 1"
     inkscape:groupmode="layer"
     id="layer1"
     transform="translate(-85.674027,-49.954616)">
    <path
       style="fill:#000000;stroke-width:0.26458332"
       d="m 164.58793,88.791596 a 27.461943,27.461943 0 0 0 -1e-5,-38.83698 l -6.80352,6.80352 a 17.84024,17.84024 0 0 1 1.1967,1.32242 17.84024,17.84024 0 0 1 1.05822,1.43532 17.84024,17.84024 0 0 1 0.9095,1.53362 17.84024,17.84024 0 0 1 0.75238,1.61693 17.84024,17.84024 0 0 1 0.58684,1.6838 17.84024,17.84024 0 0 1 0.41583,1.73422 17.84024,17.84024 0 0 1 0.24081,1.76675 17.84024,17.84024 0 0 1 0.0628,1.78246 17.84024,17.84024 0 0 1 -0.11473,1.77953 17.84024,17.84024 0 0 1 -0.29233,1.75907 17.84024,17.84024 0 0 1 -0.46662,1.72144 17.84024,17.84024 0 0 1 -0.63545,1.66589 17.84024,17.84024 0 0 1 -0.79915,1.59428 17.84024,17.84024 0 0 1 -0.95407,1.50657 17.84024,17.84024 0 0 1 -1.09988,1.4039 17.84024,17.84024 0 0 1 -0.8609,0.92375 17.84024,17.84024 0 0 1 -1.32241,1.19671 17.84024,17.84024 0 0 1 -1.43532,1.05822 17.84024,17.84024 0 0 1 -1.53362,0.9095 17.84024,17.84024 0 0 1 -1.61692,0.75237 17.84024,17.84024 0 0 1 -1.6838,0.58685 17.84024,17.84024 0 0 1 -1.73422,0.41583 17.84024,17.84024 0 0 1 -1.76675,0.2408 17.84024,17.84024 0 0 1 -1.78246,0.0628 17.84024,17.84024 0 0 1 -1.77954,-0.11474 17.84024,17.84024 0 0 1 -1.75907,-0.29232 17.84024,17.84024 0 0 1 -1.72107,-0.46626 17.84024,17.84024 0 0 1 -1.66626,-0.63581 17.84024,17.84024 0 0 1 -1.59427,-0.79915 17.84024,17.84024 0 0 1 -1.50657,-0.95408 17.84024,17.84024 0 0 1 -1.40354,-1.10024 17.84024,17.84024 0 0 1 -0.92414,-0.8605 l -6.80353,6.80352 a 27.461943,27.461943 0 0 0 38.83698,0 z"
       id="path15924"
       inkscape:connector-curvature="0" />
    <path
       inkscape:connector-curvature="0"
       id="path15940"
       d="m 93.71741,81.988156 a 27.461943,27.461943 0 0 0 0,38.836984 l 6.80352,-6.80352 a 17.84024,17.84024 0 0 1 -1.196698,-1.32242 17.84024,17.84024 0 0 1 -1.05822,-1.43532 17.84024,17.84024 0 0 1 -0.909497,-1.53362 17.84024,17.84024 0 0 1 -0.752376,-1.61693 17.84024,17.84024 0 0 1 -0.58684,-1.6838 17.84024,17.84024 0 0 1 -0.415837,-1.73423 17.84024,17.84024 0 0 1 -0.240806,-1.76674 17.84024,17.84024 0 0 1 -0.06285,-1.78246 17.84024,17.84024 0 0 1 0.114735,-1.779534 17.84024,17.84024 0 0 1 0.292328,-1.75907 17.84024,17.84024 0 0 1 0.466623,-1.72144 17.84024,17.84024 0 0 1 0.635444,-1.66589 17.84024,17.84024 0 0 1 0.799152,-1.59428 17.84024,17.84024 0 0 1 0.954073,-1.50657 17.84024,17.84024 0 0 1 1.099881,-1.4039 17.84024,17.84024 0 0 1 0.860898,-0.92375 17.84024,17.84024 0 0 1 1.32241,-1.19671 17.84024,17.84024 0 0 1 1.43532,-1.05822 17.84024,17.84024 0 0 1 1.53362,-0.9095 17.84024,17.84024 0 0 1 1.61692,-0.75237 17.84024,17.84024 0 0 1 1.6838,-0.58685 17.84024,17.84024 0 0 1 1.73423,-0.41583 17.84024,17.84024 0 0 1 1.76674,-0.2408 17.84024,17.84024 0 0 1 1.78246,-0.0628 17.84024,17.84024 0 0 1 1.77953,0.11474 17.84024,17.84024 0 0 1 1.75908,0.29232 17.84024,17.84024 0 0 1 1.72106,0.46626 17.84024,17.84024 0 0 1 1.66627,0.63581 17.84024,17.84024 0 0 1 1.59427,0.79915 17.84024,17.84024 0 0 1 1.50657,0.95408 17.84024,17.84024 0 0 1 1.40353,1.10024 17.84024,17.84024 0 0 1 0.92415,0.8605 l 6.80353,-6.80352 a 27.461943,27.461943 0 0 0 -38.836983,0 z"
       style="fill:#000000;stroke-width:0.26458332" />
    <circle
       style="fill:#4d4d4d;stroke-width:0.26458332"
       id="path15938"
       cx="151.70448"
       cy="-8.2938747"
       r="6.481286"
       transform="rotate(45)" />
    <circle
       style="fill:#4d4d4d;stroke-width:0.26458332"
       id="path15938-1"
       cx="151.70448"
       cy="-53.596069"
       r="6.481286"
       transform="rotate(45)" />
  </g>
</svg>
